<svg width="14" height="14" viewBox="0 0 14 14" fill="none" xmlns="http://www.w3.org/2000/svg">
<g clip-path="url(#clip0_2311_10644)">
<path d="M4.08341 2.33329V11.6666H9.91675V6.99996H11.0834V12.25C11.0834 12.5721 10.8223 12.8333 10.5001 12.8333H3.50008C3.17792 12.8333 2.91675 12.5721 2.91675 12.25V1.74996C2.91675 1.4278 3.17792 1.16663 3.50008 1.16663H7.58342V2.33329H4.08341ZM11.0834 3.49996H12.8334L10.5001 5.83329L8.16675 3.49996H9.91675V1.16663H11.0834V3.49996ZM7.58342 10.5C7.58342 10.8221 7.32226 11.0833 7.00008 11.0833C6.67791 11.0833 6.41675 10.8221 6.41675 10.5C6.41675 10.1778 6.67791 9.91663 7.00008 9.91663C7.32226 9.91663 7.58342 10.1778 7.58342 10.5Z" fill="#171717"/>
</g>
<defs>
<clipPath id="clip0_2311_10644">
<rect width="14" height="14" fill="white"/>
</clipPath>
</defs>
</svg>
