<svg width="14" height="14" viewBox="0 0 14 14" fill="none" xmlns="http://www.w3.org/2000/svg">
<g clip-path="url(#clip0_2311_10630)">
<path d="M0.4021 4.08134C2.20508 2.62327 4.50049 1.75 6.99986 1.75C9.49921 1.75 11.7946 2.62327 13.5977 4.08134L12.8645 4.98897C11.2619 3.69291 9.22154 2.91667 6.99986 2.91667C4.77819 2.91667 2.73783 3.69291 1.13518 4.98897L0.4021 4.08134ZM2.23481 6.3504C3.53696 5.29736 5.19476 4.66667 6.99986 4.66667C8.80499 4.66667 10.4628 5.29736 11.7649 6.3504L11.0318 7.25807C9.93 6.36703 8.52726 5.83333 6.99986 5.83333C5.47247 5.83333 4.06971 6.36703 2.9679 7.25807L2.23481 6.3504ZM4.06753 8.61951C4.86884 7.97143 5.88902 7.58333 6.99986 7.58333C8.1107 7.58333 9.13089 7.97143 9.93222 8.61951L9.19914 9.52712C8.59814 9.04108 7.83298 8.75 6.99986 8.75C6.16674 8.75 5.4016 9.04108 4.80061 9.52712L4.06753 8.61951ZM5.90022 10.8886C6.20075 10.6455 6.5833 10.5 6.99986 10.5C7.41642 10.5 7.79897 10.6455 8.0995 10.8886L6.99986 12.25L5.90022 10.8886Z" fill="black"/>
</g>
<defs>
<clipPath id="clip0_2311_10630">
<rect width="14" height="14" fill="white"/>
</clipPath>
</defs>
</svg>
