<svg width="14" height="14" viewBox="0 0 14 14" fill="none" xmlns="http://www.w3.org/2000/svg">
<g clip-path="url(#clip0_2311_10628)">
<path d="M2.33341 11.0833V2.91667H5.59179L6.75847 4.08333H11.6667V11.0833H2.33341ZM12.2501 2.91667H7.2417L6.07503 1.75H1.75008C1.42792 1.75 1.16675 2.01117 1.16675 2.33333V11.6667C1.16675 11.9888 1.42792 12.25 1.75008 12.25H12.2501C12.5723 12.25 12.8334 11.9888 12.8334 11.6667V3.5C12.8334 3.17784 12.5723 2.91667 12.2501 2.91667ZM8.75055 7.38908L5.90452 5.4917C5.8662 5.46615 5.82116 5.45252 5.77508 5.45252C5.64622 5.45252 5.54175 5.55698 5.54175 5.68585V9.48057C5.54175 9.52665 5.5554 9.57168 5.58095 9.61001C5.65241 9.71723 5.79731 9.74622 5.90452 9.6747L8.75055 7.77735C8.77616 7.76026 8.79815 7.73827 8.81524 7.71266C8.88676 7.60544 8.85777 7.46054 8.75055 7.38908Z" fill="black"/>
</g>
<defs>
<clipPath id="clip0_2311_10628">
<rect width="14" height="14" fill="white"/>
</clipPath>
</defs>
</svg>
