<svg width="22" height="22" viewBox="0 0 22 22" fill="none" xmlns="http://www.w3.org/2000/svg">
<g style="mix-blend-mode:plus-darker">
<path d="M8.08105 18.9531C7.43848 18.9531 6.91895 18.7617 6.52246 18.3789C6.12598 18.0007 5.92773 17.5016 5.92773 16.8818V5.22656C5.92773 4.60221 6.12598 4.10091 6.52246 3.72266C6.91895 3.33984 7.43848 3.14844 8.08105 3.14844H14.001C14.6253 3.14844 15.1266 3.33984 15.5049 3.72266C15.8831 4.10547 16.0723 4.60677 16.0723 5.22656V16.875C16.0723 17.4993 15.8831 18.0007 15.5049 18.3789C15.1266 18.7617 14.6253 18.9531 14.001 18.9531H8.08105ZM8.46387 17.0869H13.543C13.7799 17.0869 13.9668 17.0208 14.1035 16.8887C14.2402 16.7565 14.3086 16.5719 14.3086 16.335V5.7666C14.3086 5.53418 14.2402 5.35189 14.1035 5.21973C13.9668 5.08757 13.7799 5.02148 13.543 5.02148H8.46387C8.22233 5.02148 8.0332 5.08757 7.89648 5.21973C7.75977 5.34733 7.69141 5.52962 7.69141 5.7666V16.3418C7.69141 16.5788 7.75977 16.7611 7.89648 16.8887C8.0332 17.0208 8.22233 17.0869 8.46387 17.0869ZM9.82422 17.251V16.834C9.82422 16.6745 9.87207 16.5446 9.96777 16.4443C10.0635 16.3486 10.1911 16.3008 10.3506 16.3008H11.6562C11.8112 16.3008 11.9365 16.3486 12.0322 16.4443C12.1279 16.5446 12.1758 16.6745 12.1758 16.834V17.251H9.82422Z" fill="black"/>
</g>
</svg>
