<svg width="14" height="14" viewBox="0 0 14 14" fill="none" xmlns="http://www.w3.org/2000/svg">
<g clip-path="url(#clip0_2311_10632)">
<path d="M7.00008 0.583374L8.75008 3.50004H7.58342V7.80562L9.33342 6.93121L9.33283 6.41671H8.75008V4.08337H11.0834V6.41671H10.4995L10.5001 7.65221L7.58342 9.11054L7.58394 10.0165C8.26335 10.2568 8.75008 10.9049 8.75008 11.6667C8.75008 12.6332 7.96661 13.4167 7.00008 13.4167C6.03356 13.4167 5.25008 12.6332 5.25008 11.6667C5.25008 10.9743 5.6522 10.3758 6.23562 10.0921L3.50008 8.16671L3.49945 6.84359C3.15108 6.64176 2.91675 6.26492 2.91675 5.83337C2.91675 5.18904 3.43908 4.66671 4.08341 4.66671C4.72775 4.66671 5.25008 5.18904 5.25008 5.83337C5.25008 6.26522 5.01548 6.64222 4.66679 6.84394L4.66675 7.58337L6.41675 8.80021V3.50004H5.25008L7.00008 0.583374ZM7.00008 11.0834C6.67791 11.0834 6.41675 11.3445 6.41675 11.6667C6.41675 11.9889 6.67791 12.25 7.00008 12.25C7.32226 12.25 7.58342 11.9889 7.58342 11.6667C7.58342 11.3445 7.32226 11.0834 7.00008 11.0834Z" fill="#171717"/>
</g>
<defs>
<clipPath id="clip0_2311_10632">
<rect width="14" height="14" fill="white"/>
</clipPath>
</defs>
</svg>
