<svg width="14" height="14" viewBox="0 0 14 14" fill="none" xmlns="http://www.w3.org/2000/svg">
<g clip-path="url(#clip0_2311_10638)">
<path d="M1.75 2.32948C1.75 2.00944 2.00955 1.75 2.32948 1.75H11.6705C11.9905 1.75 12.25 2.00955 12.25 2.32948V11.6705C12.25 11.9905 11.9905 12.25 11.6705 12.25H2.32948C2.00944 12.25 1.75 11.9905 1.75 11.6705V2.32948ZM2.91667 2.91667V11.0833H11.0833V2.91667H2.91667ZM6.19611 4.90851L9.04213 6.80587C9.14935 6.87733 9.17834 7.02223 9.10683 7.12944C9.08973 7.15505 9.06774 7.17704 9.04213 7.19413L6.19611 9.09148C6.08889 9.163 5.94399 9.13401 5.87253 9.02679C5.84698 8.98847 5.83333 8.94343 5.83333 8.89735V5.10266C5.83333 4.97379 5.93781 4.86932 6.06667 4.86932C6.11275 4.86932 6.15778 4.88296 6.19611 4.90851Z" fill="#171717"/>
</g>
<defs>
<clipPath id="clip0_2311_10638">
<rect width="14" height="14" fill="white"/>
</clipPath>
</defs>
</svg>
