<svg width="34" height="40" viewBox="0 0 34 40" fill="none" xmlns="http://www.w3.org/2000/svg">
<path fill-rule="evenodd" clip-rule="evenodd" d="M5.87834 8.66218C6.22217 8.18579 6.4924 7.59686 6.68903 6.8954L7.46085 2.33552C7.91108 0.778507 8.96429 0 10.6205 0H21.7636C23.4359 0 24.4811 0.778507 24.8992 2.33552L25.6951 6.8954C25.9173 7.63521 26.2077 8.24984 26.5663 8.73929C28.7147 10.7097 30.301 13.2831 31.057 16.1914H32.2381C32.7641 16.1914 33.1905 16.6178 33.1905 17.1438V21.9057C33.1905 22.4317 32.7641 22.8581 32.2381 22.8581H31.2982C30.6643 26.3171 28.8725 29.3713 26.3393 31.6042C26.0831 32.0322 25.8684 32.5405 25.6951 33.1292L24.8992 37.6645C24.4489 39.2215 23.4038 40 21.7636 40H10.6205C8.96429 40 7.91108 39.2215 7.46085 37.6645L6.68903 33.1292C6.51878 32.5507 6.30447 32.0499 6.04609 31.6266C2.83599 28.8095 0.809509 24.6762 0.809509 20.0697C0.809509 15.5439 2.76555 11.475 5.87834 8.66218ZM16.18 32.4533C23.0178 32.4533 28.5609 26.9102 28.5609 20.0724C28.5609 13.2345 23.0178 7.69141 16.18 7.69141C9.34215 7.69141 3.79901 13.2345 3.79901 20.0724C3.79901 26.9102 9.34215 32.4533 16.18 32.4533Z" fill="black"/>
</svg>
