<svg width="23" height="13" viewBox="0 0 23 13" fill="none" xmlns="http://www.w3.org/2000/svg">
<path d="M12.9218 6.49995C12.9218 9.93014 10.1411 12.7108 6.71088 12.7108C3.28069 12.7108 0.5 9.93014 0.5 6.49995C0.5 3.06975 3.28069 0.289062 6.71088 0.289062C10.1411 0.289062 12.9218 3.06975 12.9218 6.49995Z" fill="white"/>
<path d="M12.9966 12.7108C13.8122 12.7108 14.6199 12.5501 15.3734 12.2382C16.1269 11.926 16.8116 11.4685 17.3884 10.8918C17.9651 10.3151 18.4226 9.63024 18.7347 8.87667C19.0468 8.12311 19.2075 7.31548 19.2075 6.49995V12.0029C19.7489 11.7147 20.2456 11.3472 20.6809 10.912C21.2576 10.3353 21.7151 9.6504 22.0272 8.89684C22.3393 8.14328 22.5 7.33565 22.5 6.52012C22.5 5.70459 22.3393 4.89695 22.0272 4.14339C21.7151 3.38983 21.2576 2.70496 20.6809 2.12824C20.2456 1.693 19.7489 1.32557 19.2075 1.03736V6.49995C19.2075 5.68442 19.0468 4.87678 18.7347 4.12322C18.4226 3.36966 17.9651 2.68479 17.3884 2.10807C16.8116 1.53136 16.1269 1.0739 15.3734 0.761719C14.6199 0.44983 13.8122 0.289062 12.9966 0.289062V12.7108Z" fill="white"/>
</svg>
